<?xml version="1.0" encoding="utf-8"?>
<!-- Generator: Adobe Illustrator 22.0.1, SVG Export Plug-In . SVG Version: 6.00 Build 0)  -->
<svg version="1.1" id="Laag_1" xmlns="http://www.w3.org/2000/svg" xmlns:xlink="http://www.w3.org/1999/xlink" x="0px" y="0px"
	 viewBox="0 0 79.8 125.7" style="enable-background:new 0 0 79.8 125.7;" xml:space="preserve">
<style type="text/css">
	.st0{opacity:0.4;}
	.st1{fill:#C4C4C4;}
</style>
<g id="Rocket" class="st0">
	<g>
		<path class="st1" d="M77.8,84.1c-0.4-0.8-0.9-1.5-1.7-2.4L58.4,62.1V29.4C58.4,19.8,50.8,2,40,2h-0.3C28.9,2,21.3,19.8,21.3,29.4
			v32.7L3.5,81.7c-0.8,0.8-1.3,1.6-1.7,2.4c-0.6,1.3-1,2.8-1,4.3v5c0,3.5,2.9,6.4,6.4,6.4h14v1.7c0,3.2,2.6,5.7,5.7,5.7h1.7v5
			c0,1.5,1.2,2.8,2.8,2.8c1.5,0,2.8-1.2,2.8-2.8v-5h2.9v2.4c0,1.5,1.2,2.8,2.8,2.8c1.5,0,2.8-1.2,2.8-2.8v-2.4h2.9v5
			c0,1.5,1.2,2.8,2.8,2.8s2.8-1.2,2.8-2.8v-5h1.7c3.2,0,5.7-2.6,5.7-5.7v-1.7h14c3.5,0,6.4-2.9,6.4-6.4v-5
			C78.8,86.9,78.5,85.4,77.8,84.1z M21.3,94.4h-14c-0.5,0-0.9-0.4-0.9-0.9v-5c0-0.7,0.2-1.3,0.4-1.9c0.2-0.3,0.4-0.7,0.8-1.1
			l13.7-15.1V94.4z M37.1,101.8H27c-0.1,0-0.2-0.1-0.2-0.2v-1.7h10.3V101.8z M52.9,101.6c0,0.1-0.1,0.2-0.2,0.2H42.6v-1.9h10.3
			C52.9,99.9,52.9,101.6,52.9,101.6z M52.9,94.4H42.6v-7.1c0-1.5-1.2-2.8-2.8-2.8c-1.5,0-2.8,1.2-2.8,2.8v7.1H26.8V80.1H53
			L52.9,94.4L52.9,94.4z M52.9,74.6H26.8V60.4H53L52.9,74.6L52.9,74.6z M52.9,54.9H26.8V40.6H53L52.9,54.9L52.9,54.9z M52.9,35.1
			H26.8v-5.7c0-7.9,6.5-22,12.9-22H40c6.4,0,12.9,14.1,12.9,22V35.1z M73.3,93.5c0,0.5-0.4,0.9-0.9,0.9h-14V70.3l13.7,15.1
			c0.4,0.4,0.6,0.8,0.8,1.1c0.3,0.6,0.4,1.3,0.4,1.9V93.5z"/>
	</g>
	<g>
		<path class="st1" d="M42.6,118.1v2.5c0,1.5-1.2,2.8-2.8,2.8c-1.5,0-2.8-1.2-2.8-2.8v-2.5c0-1.5,1.2-2.8,2.8-2.8
			C41.3,115.4,42.6,116.6,42.6,118.1z"/>
	</g>
	<g>
		<path class="st1" d="M47.9,29.8c-1.4,0.5-3-0.2-3.5-1.6C44.1,27.4,43,25,39.9,25c-3.2,0-4.4,2.5-4.7,3.3c-0.4,1.1-1.5,1.8-2.6,1.8
			c-0.3,0-0.7-0.1-1-0.2c-1.4-0.5-2.1-2.1-1.6-3.5c1.3-3.3,4.5-6.8,9.8-6.8s8.5,3.5,9.7,6.8C50.1,27.7,49.4,29.3,47.9,29.8z"/>
	</g>
</g>
</svg>
